<?xml version="1.0" standalone="no"?>
<!DOCTYPE svg PUBLIC "-//W3C//DTD SVG 20010904//EN"
 "http://www.w3.org/TR/2001/REC-SVG-20010904/DTD/svg10.dtd">
<svg version="1.0" xmlns="http://www.w3.org/2000/svg"
viewBox="0 0 405.000000 288.000000"
 preserveAspectRatio="xMidYMid meet">

<g transform="translate(0.000000,288.000000) scale(0.100000,-0.100000)"
 stroke="none">
<path d="M1962 2850 c-92 -42 -200 -171 -536 -642 l-319 -446 -111 38 c-61 21
-247 90 -414 154 -295 112 -412 148 -520 162 l-52 7 0 -71 c0 -74 5 -82 54
-82 54 0 192 -46 506 -170 223 -88 344 -140 363 -158 34 -32 33 -67 -3 -94
-24 -18 -40 -18 -365 -8 -187 5 -388 12 -447 15 l-108 5 0 -595 0 -595 588 0
588 0 30 -39 c38 -52 109 -108 186 -148 l63 -32 -727 -1 -728 0 0 -75 0 -75
2020 0 2020 0 0 75 0 75 -233 0 -234 0 24 49 25 49 -41 297 c-23 162 -41 311
-41 329 0 18 16 111 36 207 29 142 35 190 32 262 l-4 87 -135 272 c-114 231
-140 275 -172 299 -69 51 -168 60 -240 22 -16 -8 -112 -86 -215 -174 -142
-123 -190 -159 -206 -155 -12 2 -72 8 -133 12 -62 3 -113 8 -113 11 0 2 7 17
15 33 10 19 28 33 53 41 61 18 98 100 73 164 -7 17 -11 13 -35 -28 -15 -26
-30 -47 -32 -47 -12 0 -84 41 -84 48 0 4 11 26 24 49 13 23 22 44 19 47 -12
11 -82 -35 -102 -67 -16 -27 -20 -44 -15 -78 6 -42 1 -52 -84 -199 -49 -85
-94 -154 -98 -154 -38 6 -830 189 -835 193 -4 3 175 260 396 571 323 453 400
566 386 572 -30 12 -76 8 -119 -12z m1327 -1593 c4 -12 2 -112 -4 -222 l-13
-200 49 -303 c47 -295 55 -328 87 -364 14 -17 5 -18 -186 -18 l-201 0 19 33
c16 26 26 93 51 318 25 222 36 287 48 299 9 8 33 29 53 45 l37 30 11 184 c8
125 8 187 1 194 -15 15 -319 -276 -341 -328 -18 -41 -91 -587 -90 -676 0 -31
7 -55 21 -73 l20 -26 -528 0 -528 0 56 28 c74 36 150 96 189 147 l32 42 201 6
c289 9 382 30 423 92 19 29 68 327 60 372 -2 17 -13 44 -24 60 -18 25 -19 36
-11 98 11 97 11 213 -1 257 -17 61 -57 98 -155 144 -82 39 -247 94 -281 94 -8
0 -14 4 -14 8 0 27 29 27 223 -1 126 -19 216 -28 239 -23 20 3 96 44 169 90
l134 84 123 -185 c67 -101 127 -194 131 -206z m-1503 -277 c141 -69 222 -227
195 -376 -22 -116 -88 -206 -193 -261 -48 -26 -62 -28 -158 -28 -96 0 -110 3
-158 28 -209 110 -261 379 -107 555 103 119 278 153 421 82z"/>
<path d="M2801 2454 c-66 -33 -102 -85 -109 -155 l-5 -51 -63 -30 c-56 -26
-63 -32 -54 -49 13 -23 43 -24 100 -4 23 8 46 15 49 15 4 0 17 -20 29 -45 60
-123 245 -143 335 -36 37 44 51 95 43 162 -7 68 -28 124 -59 157 -62 67 -173
82 -266 36z"/>
</g>
</svg>
