<?xml version="1.0" standalone="no"?>
<!DOCTYPE svg PUBLIC "-//W3C//DTD SVG 20010904//EN"
 "http://www.w3.org/TR/2001/REC-SVG-20010904/DTD/svg10.dtd">
<svg version="1.0" xmlns="http://www.w3.org/2000/svg"
 width="187.000000pt" height="73.000000pt" viewBox="0 0 187.000000 73.000000"
 preserveAspectRatio="xMidYMid meet">

<g transform="translate(0.000000,73.000000) scale(0.100000,-0.100000)"
 stroke="none">
<path d="M287 400 c-86 -78 -157 -145 -157 -150 0 -5 10 -16 22 -24 19 -14 65
-16 301 -16 l278 0 60 57 c36 34 56 60 50 66 -5 5 -56 7 -115 5 l-105 -3 -43
-42 -44 -43 -88 0 c-48 0 -86 4 -84 9 2 4 63 63 136 130 l132 121 120 0 120 0
110 -55 110 -55 250 0 c137 0 250 -3 250 -8 0 -20 -63 -81 -111 -107 -47 -26
-67 -30 -154 -33 l-100 -4 24 26 c22 24 31 26 102 26 79 0 129 11 129 30 0 6
-75 10 -216 10 l-215 0 -60 -57 c-36 -34 -56 -60 -50 -66 5 -5 142 -7 322 -5
l314 3 67 32 c36 17 83 48 105 70 42 42 85 108 76 117 -4 3 -146 6 -317 6
l-311 0 -104 50 -103 50 -272 0 -271 0 -158 -140z"/>
</g>
</svg>
